# xmcd CD database file
#
# Track frame offsets:
#	150
#	23125
#	58693
#	76731
#	94757
#	109000
#	128448
#	141788
#	156604
#	179512
#	194380
#	210293
#	230998
#	247601
#	269172
#
# Disc length: 3770 seconds
#
# Revision: 0
# Processed by: cddbd v1.5.1PL0 Copyright (c) Steve Scherf et al.
# Submitted via: CDex 1.51
#
DISCID=cd0eb80f
DTITLE=Ahmad Jamal Trio - Ahmad's blues
DYEAR=1900
DGENRE=Blues
TTITLE0=This can't be love
TTITLE1=Autumn leaves
TTITLE2=Ahmad's blues
TTITLE3=Old devil moon
TTITLE4=Seleriters
TTITLE5=It could happen to you
TTITLE6=Ivy
TTITLE7=Tater pie
TTITLE8=Let's fall in love
TTITLE9=Brother and sister
TTITLE10=You don't know what time it was
TTITLE11=I didn't know what time it was
TTITLE12=So beats my heart for you
TTITLE13=Sal in calico
TTITLE14=Our delight
EXTD=
EXTT0=
EXTT1=
EXTT2=
EXTT3=
EXTT4=
EXTT5=
EXTT6=
EXTT7=
EXTT8=
EXTT9=
EXTT10=
EXTT11=
EXTT12=
EXTT13=
EXTT14=
PLAYORDER=
